<svg id="visual" viewBox="0 0 900 450" width="900" height="450" xmlns="http://www.w3.org/2000/svg" xmlns:xlink="http://www.w3.org/1999/xlink" version="1.1"><g stroke-width="1" stroke-linejoin="bevel"><path d="M476 208L394 205L404 280Z" fill="#297ea6" stroke="#297ea6"></path><path d="M404 280L491 290L476 208Z" fill="#1d4e6b" stroke="#1d4e6b"></path><path d="M394 205L337 214L404 280Z" fill="#277297" stroke="#277297"></path><path d="M312 299L422 370L404 280Z" fill="#00101c" stroke="#00101c"></path><path d="M404 280L422 370L491 290Z" fill="#112e42" stroke="#112e42"></path><path d="M337 214L312 299L404 280Z" fill="#00101c" stroke="#00101c"></path><path d="M579 212L479 105L476 208Z" fill="#19435d" stroke="#19435d"></path><path d="M476 208L407 99L394 205Z" fill="#277297" stroke="#277297"></path><path d="M394 205L336 125L337 214Z" fill="#205a7a" stroke="#205a7a"></path><path d="M479 105L407 99L476 208Z" fill="#0c2435" stroke="#0c2435"></path><path d="M422 370L511 358L491 290Z" fill="#15384f" stroke="#15384f"></path><path d="M491 290L579 212L476 208Z" fill="#081a28" stroke="#081a28"></path><path d="M637 239L579 212L637 335Z" fill="#0c2435" stroke="#0c2435"></path><path d="M407 99L336 125L394 205Z" fill="#19435d" stroke="#19435d"></path><path d="M337 214L206 251L312 299Z" fill="#205a7a" stroke="#205a7a"></path><path d="M207 337L292 373L312 299Z" fill="#277297" stroke="#277297"></path><path d="M312 299L292 373L422 370Z" fill="#00101c" stroke="#00101c"></path><path d="M637 335L579 212L491 290Z" fill="#297ea6" stroke="#297ea6"></path><path d="M632 68L515 0L479 105Z" fill="#00101c" stroke="#00101c"></path><path d="M422 370L476 450L511 358Z" fill="#1d4e6b" stroke="#1d4e6b"></path><path d="M511 358L637 335L491 290Z" fill="#081a28" stroke="#081a28"></path><path d="M365 450L476 450L422 370Z" fill="#081a28" stroke="#081a28"></path><path d="M292 373L365 450L422 370Z" fill="#205a7a" stroke="#205a7a"></path><path d="M670 362L637 335L597 450Z" fill="#1d4e6b" stroke="#1d4e6b"></path><path d="M192 218L206 251L337 214Z" fill="#246688" stroke="#246688"></path><path d="M407 99L333 0L336 125Z" fill="#112e42" stroke="#112e42"></path><path d="M336 125L192 218L337 214Z" fill="#081a28" stroke="#081a28"></path><path d="M479 105L409 0L407 99Z" fill="#15384f" stroke="#15384f"></path><path d="M515 0L409 0L479 105Z" fill="#112e42" stroke="#112e42"></path><path d="M198 113L192 218L336 125Z" fill="#00101c" stroke="#00101c"></path><path d="M123 309L207 337L206 251Z" fill="#112e42" stroke="#112e42"></path><path d="M206 251L207 337L312 299Z" fill="#277297" stroke="#277297"></path><path d="M292 373L292 450L365 450Z" fill="#277297" stroke="#277297"></path><path d="M632 68L479 105L579 212Z" fill="#297ea6" stroke="#297ea6"></path><path d="M184 450L292 450L292 373Z" fill="#297ea6" stroke="#297ea6"></path><path d="M409 0L333 0L407 99Z" fill="#19435d" stroke="#19435d"></path><path d="M695 186L632 68L579 212Z" fill="#15384f" stroke="#15384f"></path><path d="M637 239L695 186L579 212Z" fill="#19435d" stroke="#19435d"></path><path d="M737 289L695 186L637 239Z" fill="#00101c" stroke="#00101c"></path><path d="M597 450L637 335L511 358Z" fill="#112e42" stroke="#112e42"></path><path d="M637 335L737 289L637 239Z" fill="#0c2435" stroke="#0c2435"></path><path d="M333 0L198 113L336 125Z" fill="#1d4e6b" stroke="#1d4e6b"></path><path d="M476 450L597 450L511 358Z" fill="#112e42" stroke="#112e42"></path><path d="M632 68L619 0L515 0Z" fill="#205a7a" stroke="#205a7a"></path><path d="M687 0L619 0L632 68Z" fill="#112e42" stroke="#112e42"></path><path d="M776 382L737 289L670 362Z" fill="#19435d" stroke="#19435d"></path><path d="M670 362L737 289L637 335Z" fill="#15384f" stroke="#15384f"></path><path d="M807 193L711 103L695 186Z" fill="#1d4e6b" stroke="#1d4e6b"></path><path d="M695 186L711 103L632 68Z" fill="#19435d" stroke="#19435d"></path><path d="M597 450L670 450L670 362Z" fill="#112e42" stroke="#112e42"></path><path d="M192 218L123 309L206 251Z" fill="#277297" stroke="#277297"></path><path d="M207 337L184 450L292 373Z" fill="#15384f" stroke="#15384f"></path><path d="M69 194L123 309L192 218Z" fill="#112e42" stroke="#112e42"></path><path d="M137 450L184 450L207 337Z" fill="#1d4e6b" stroke="#1d4e6b"></path><path d="M169 0L117 109L198 113Z" fill="#1d4e6b" stroke="#1d4e6b"></path><path d="M198 113L117 109L192 218Z" fill="#297ea6" stroke="#297ea6"></path><path d="M711 103L687 0L632 68Z" fill="#297ea6" stroke="#297ea6"></path><path d="M333 0L169 0L198 113Z" fill="#277297" stroke="#277297"></path><path d="M82 348L137 450L207 337Z" fill="#081a28" stroke="#081a28"></path><path d="M0 173L69 194L0 97Z" fill="#081a28" stroke="#081a28"></path><path d="M117 109L69 194L192 218Z" fill="#1d4e6b" stroke="#1d4e6b"></path><path d="M123 309L82 348L207 337Z" fill="#297ea6" stroke="#297ea6"></path><path d="M0 294L82 348L123 309Z" fill="#0c2435" stroke="#0c2435"></path><path d="M670 450L776 382L670 362Z" fill="#205a7a" stroke="#205a7a"></path><path d="M737 289L807 193L695 186Z" fill="#246688" stroke="#246688"></path><path d="M831 309L807 193L737 289Z" fill="#1d4e6b" stroke="#1d4e6b"></path><path d="M711 103L822 0L687 0Z" fill="#205a7a" stroke="#205a7a"></path><path d="M776 382L831 309L737 289Z" fill="#205a7a" stroke="#205a7a"></path><path d="M900 213L823 98L807 193Z" fill="#0c2435" stroke="#0c2435"></path><path d="M807 193L823 98L711 103Z" fill="#297ea6" stroke="#297ea6"></path><path d="M169 0L91 0L117 109Z" fill="#205a7a" stroke="#205a7a"></path><path d="M776 382L900 350L831 309Z" fill="#297ea6" stroke="#297ea6"></path><path d="M670 450L798 450L776 382Z" fill="#081a28" stroke="#081a28"></path><path d="M69 194L0 294L123 309Z" fill="#0c2435" stroke="#0c2435"></path><path d="M82 348L0 396L137 450Z" fill="#1d4e6b" stroke="#1d4e6b"></path><path d="M0 173L0 294L69 194Z" fill="#15384f" stroke="#15384f"></path><path d="M0 97L69 194L117 109Z" fill="#205a7a" stroke="#205a7a"></path><path d="M900 61L822 0L823 98Z" fill="#205a7a" stroke="#205a7a"></path><path d="M823 98L822 0L711 103Z" fill="#19435d" stroke="#19435d"></path><path d="M91 0L0 97L117 109Z" fill="#00101c" stroke="#00101c"></path><path d="M0 294L0 396L82 348Z" fill="#15384f" stroke="#15384f"></path><path d="M900 350L900 258L831 309Z" fill="#15384f" stroke="#15384f"></path><path d="M831 309L900 258L807 193Z" fill="#297ea6" stroke="#297ea6"></path><path d="M900 258L900 213L807 193Z" fill="#0c2435" stroke="#0c2435"></path><path d="M798 450L900 350L776 382Z" fill="#246688" stroke="#246688"></path><path d="M0 396L0 450L137 450Z" fill="#246688" stroke="#246688"></path><path d="M91 0L0 0L0 97Z" fill="#19435d" stroke="#19435d"></path><path d="M900 213L900 61L823 98Z" fill="#081a28" stroke="#081a28"></path><path d="M798 450L900 450L900 350Z" fill="#277297" stroke="#277297"></path><path d="M900 61L900 0L822 0Z" fill="#15384f" stroke="#15384f"></path></g></svg>